<svg xmlns="http://www.w3.org/2000/svg" width="187.5" viewBox="0 0 187.5 75" height="75" version="1.0"><defs><clipPath id="a"><path d="M 153 0.101562 L 187 0.101562 L 187 34 L 153 34 Z M 153 0.101562"/></clipPath><clipPath id="b"><path d="M 163.109375 -3.613281 L 191.921875 19.203125 L 177.488281 37.429688 L 148.675781 14.617188 Z M 163.109375 -3.613281"/></clipPath><clipPath id="c"><path d="M 163.109375 -3.613281 L 191.921875 19.203125 L 177.488281 37.429688 L 148.675781 14.617188 Z M 163.109375 -3.613281"/></clipPath></defs><path stroke-linecap="round" transform="matrix(3.75 0 0 3.75 7.5 7.6)" fill="none" d="M 0.5 0.000488423 L 45.500004 0.000488423" stroke="#FD7302"/><path stroke-linecap="round" transform="matrix(3.75 0 0 3.75 7.5 67.6)" fill="none" d="M 0.5 0.000489005 L 45.500004 0.000489005" stroke="#FD7302"/><g fill="#FD7302"><g><g><path d="M 10.5 0.34375 C 8.351562 0.34375 6.617188 0.113281 5.296875 -0.34375 C 3.984375 -0.8125 2.984375 -1.445312 2.296875 -2.25 C 1.617188 -3.0625 1.160156 -3.992188 0.921875 -5.046875 L 8 -5.046875 C 8.519531 -4.296875 9.351562 -3.921875 10.5 -3.921875 C 11.644531 -3.921875 12.476562 -4.296875 13 -5.046875 C 13.050781 -5.117188 13.078125 -5.1875 13.078125 -5.25 C 13.078125 -5.445312 12.8125 -5.59375 12.28125 -5.6875 C 11.75 -5.789062 10.960938 -5.867188 9.921875 -5.921875 C 8.597656 -5.984375 7.207031 -6.125 5.75 -6.34375 C 2.507812 -6.84375 0.890625 -8.148438 0.890625 -10.265625 C 0.890625 -10.441406 0.898438 -10.628906 0.921875 -10.828125 C 1.160156 -11.878906 1.617188 -12.804688 2.296875 -13.609375 C 2.984375 -14.421875 3.984375 -15.054688 5.296875 -15.515625 C 6.617188 -15.984375 8.351562 -16.21875 10.5 -16.21875 C 12.644531 -16.21875 14.375 -15.984375 15.6875 -15.515625 C 17.007812 -15.054688 18.015625 -14.421875 18.703125 -13.609375 C 19.390625 -12.804688 19.847656 -11.878906 20.078125 -10.828125 L 13 -10.828125 C 12.476562 -11.578125 11.644531 -11.953125 10.5 -11.953125 C 9.351562 -11.953125 8.519531 -11.578125 8 -10.828125 C 7.957031 -10.765625 7.9375 -10.707031 7.9375 -10.65625 C 7.9375 -10.476562 8.1875 -10.347656 8.6875 -10.265625 C 9.195312 -10.179688 9.945312 -10.109375 10.9375 -10.046875 C 11.925781 -9.984375 12.976562 -9.882812 14.09375 -9.75 C 15.207031 -9.625 16.25 -9.394531 17.21875 -9.0625 C 18.1875 -8.738281 18.945312 -8.253906 19.5 -7.609375 C 19.925781 -7.117188 20.140625 -6.492188 20.140625 -5.734375 C 20.140625 -5.515625 20.117188 -5.285156 20.078125 -5.046875 C 19.847656 -3.992188 19.390625 -3.0625 18.703125 -2.25 C 18.015625 -1.445312 17.007812 -0.8125 15.6875 -0.34375 C 14.375 0.113281 12.644531 0.34375 10.5 0.34375 Z M 10.5 0.34375" transform="translate(10.336 28.6)"/></g></g><g><g><path d="M 13.5625 0 L 6.890625 0 L 6.890625 -11.96875 L 0.671875 -11.96875 L 0.671875 -15.890625 L 19.78125 -15.890625 L 19.78125 -11.96875 L 13.5625 -11.96875 Z M 13.5625 0" transform="translate(31.362 28.6)"/></g></g><g><g><path d="M 23.46875 0 L 17.171875 0 C 16.878906 -0.394531 16.675781 -0.90625 16.5625 -1.53125 C 16.457031 -2.007812 16.300781 -2.476562 16.09375 -2.9375 C 15.882812 -3.40625 15.523438 -3.789062 15.015625 -4.09375 C 14.515625 -4.394531 13.765625 -4.5625 12.765625 -4.59375 L 8.4375 -4.59375 L 8.4375 0 L 1.765625 0 L 1.765625 -15.890625 L 12.625 -15.890625 C 15.207031 -15.890625 17.296875 -15.695312 18.890625 -15.3125 C 20.484375 -14.925781 21.644531 -14.316406 22.375 -13.484375 C 23.101562 -12.648438 23.46875 -11.566406 23.46875 -10.234375 C 23.46875 -9.117188 23.210938 -8.179688 22.703125 -7.421875 C 22.203125 -6.660156 21.40625 -6.054688 20.3125 -5.609375 C 21.375 -5.179688 22.0625 -4.660156 22.375 -4.046875 C 22.6875 -3.441406 22.878906 -2.769531 22.953125 -2.03125 C 23.023438 -1.382812 23.195312 -0.707031 23.46875 0 Z M 8.4375 -8.515625 L 12.25 -8.515625 C 13.3125 -8.515625 14.148438 -8.5625 14.765625 -8.65625 C 15.378906 -8.757812 15.832031 -8.894531 16.125 -9.0625 C 16.414062 -9.226562 16.601562 -9.410156 16.6875 -9.609375 C 16.769531 -9.816406 16.8125 -10.023438 16.8125 -10.234375 C 16.8125 -10.453125 16.769531 -10.660156 16.6875 -10.859375 C 16.601562 -11.066406 16.414062 -11.253906 16.125 -11.421875 C 15.832031 -11.585938 15.378906 -11.71875 14.765625 -11.8125 C 14.148438 -11.914062 13.3125 -11.96875 12.25 -11.96875 L 8.4375 -11.96875 Z M 8.4375 -8.515625" transform="translate(51.812 28.6)"/></g></g><g><g><path d="M 12.015625 0.34375 C 8.085938 0.34375 5.195312 -0.460938 3.34375 -2.078125 C 1.707031 -3.515625 0.890625 -5.46875 0.890625 -7.9375 C 0.890625 -10.40625 1.707031 -12.359375 3.34375 -13.796875 C 5.195312 -15.410156 8.085938 -16.21875 12.015625 -16.21875 C 15.941406 -16.21875 18.832031 -15.410156 20.6875 -13.796875 C 22.332031 -12.359375 23.15625 -10.40625 23.15625 -7.9375 C 23.15625 -5.46875 22.332031 -3.515625 20.6875 -2.078125 C 18.832031 -0.460938 15.941406 0.34375 12.015625 0.34375 Z M 12.015625 -3.921875 C 13.628906 -3.921875 14.8125 -4.382812 15.5625 -5.3125 C 16.164062 -6.050781 16.46875 -6.925781 16.46875 -7.9375 C 16.46875 -8.945312 16.164062 -9.820312 15.5625 -10.5625 C 14.8125 -11.5 13.628906 -11.96875 12.015625 -11.96875 C 10.410156 -11.96875 9.226562 -11.5 8.46875 -10.5625 C 7.863281 -9.820312 7.5625 -8.945312 7.5625 -7.9375 C 7.5625 -6.925781 7.863281 -6.050781 8.46875 -5.3125 C 9.226562 -4.382812 10.410156 -3.921875 12.015625 -3.921875 Z M 12.015625 -3.921875" transform="translate(76.172 28.6)"/></g></g><g><g><path d="M 25.359375 0 L 17.421875 0 L 8.4375 -10.75 L 8.4375 0 L 1.765625 0 L 1.765625 -15.890625 L 9.703125 -15.890625 L 18.6875 -5.203125 L 18.6875 -15.890625 L 25.359375 -15.890625 Z M 25.359375 0" transform="translate(100.21 28.6)"/></g></g><g><g><path d="M 12.015625 0.34375 C 8.085938 0.34375 5.195312 -0.460938 3.34375 -2.078125 C 1.707031 -3.515625 0.890625 -5.46875 0.890625 -7.9375 C 0.890625 -10.40625 1.707031 -12.359375 3.34375 -13.796875 C 5.195312 -15.410156 8.085938 -16.21875 12.015625 -16.21875 C 14.253906 -16.21875 16.113281 -15.96875 17.59375 -15.46875 C 19.082031 -14.96875 20.25 -14.28125 21.09375 -13.40625 C 21.9375 -12.539062 22.515625 -11.539062 22.828125 -10.40625 L 15.703125 -10.40625 C 14.953125 -11.4375 13.722656 -11.953125 12.015625 -11.953125 C 10.410156 -11.953125 9.226562 -11.488281 8.46875 -10.5625 C 7.863281 -9.820312 7.5625 -8.945312 7.5625 -7.9375 C 7.5625 -6.925781 7.863281 -6.050781 8.46875 -5.3125 C 9.226562 -4.382812 10.410156 -3.921875 12.015625 -3.921875 C 13.316406 -3.921875 14.296875 -4.03125 14.953125 -4.25 C 15.609375 -4.476562 16.085938 -4.773438 16.390625 -5.140625 L 13.78125 -5.140625 L 13.78125 -7.9375 L 22.828125 -7.9375 L 22.828125 0.015625 L 20.0625 0.015625 L 19.5 -1.53125 C 17.726562 -0.28125 15.234375 0.34375 12.015625 0.34375 Z M 12.015625 0.34375" transform="translate(127.34 28.6)"/></g></g></g><g fill="#FFF"><g><g><path d="M 12.015625 0.34375 C 8.085938 0.34375 5.195312 -0.460938 3.34375 -2.078125 C 1.707031 -3.515625 0.890625 -5.46875 0.890625 -7.9375 C 0.890625 -10.40625 1.707031 -12.359375 3.34375 -13.796875 C 5.195312 -15.410156 8.085938 -16.21875 12.015625 -16.21875 C 14.253906 -16.21875 16.113281 -15.96875 17.59375 -15.46875 C 19.082031 -14.96875 20.25 -14.28125 21.09375 -13.40625 C 21.9375 -12.539062 22.515625 -11.539062 22.828125 -10.40625 L 15.703125 -10.40625 C 14.953125 -11.4375 13.722656 -11.953125 12.015625 -11.953125 C 10.410156 -11.953125 9.226562 -11.488281 8.46875 -10.5625 C 7.863281 -9.820312 7.5625 -8.945312 7.5625 -7.9375 C 7.5625 -6.925781 7.863281 -6.050781 8.46875 -5.3125 C 9.226562 -4.382812 10.410156 -3.921875 12.015625 -3.921875 C 13.316406 -3.921875 14.296875 -4.03125 14.953125 -4.25 C 15.609375 -4.476562 16.085938 -4.773438 16.390625 -5.140625 L 13.78125 -5.140625 L 13.78125 -7.9375 L 22.828125 -7.9375 L 22.828125 0.015625 L 20.0625 0.015625 L 19.5 -1.53125 C 17.726562 -0.28125 15.234375 0.34375 12.015625 0.34375 Z M 12.015625 0.34375" transform="translate(39.797 60.1)"/></g></g><g><g><path d="M 15.515625 0 L 8.84375 0 L 8.84375 -7.53125 L 0.171875 -15.890625 L 7.5625 -15.890625 L 12.171875 -11.140625 L 16.78125 -15.890625 L 24.171875 -15.890625 L 15.515625 -7.53125 Z M 15.515625 0" transform="translate(63.958 60.1)"/></g></g><g><g><path d="M 32 0 L 25.328125 0 L 25.328125 -10.140625 L 19.359375 0 L 14.390625 0 L 8.4375 -10.140625 L 8.4375 0 L 1.765625 0 L 1.765625 -15.890625 L 9.6875 -15.890625 L 16.875 -4.546875 L 24.0625 -15.890625 L 32 -15.890625 Z M 32 0" transform="translate(88.296 60.1)"/></g></g></g><g clip-path="url(#a)"><g clip-path="url(#b)"><g clip-path="url(#c)"><path fill="#FFF" d="M 184.847656 25.304688 L 183.589844 24.308594 L 187.066406 19.917969 C 187.671875 19.152344 187.546875 18.042969 186.789062 17.441406 L 185.726562 16.601562 C 185.449219 16.382812 185.121094 16.257812 184.792969 16.234375 L 184.996094 15.972656 C 185.605469 15.207031 185.480469 14.101562 184.71875 13.5 L 183.65625 12.65625 C 182.898438 12.054688 181.789062 12.1875 181.183594 12.953125 L 176.585938 18.761719 L 167.058594 11.21875 L 171.660156 5.410156 C 172.265625 4.644531 172.140625 3.539062 171.378906 2.9375 L 170.320312 2.097656 C 169.558594 1.496094 168.453125 1.625 167.84375 2.390625 L 167.640625 2.652344 C 167.535156 2.332031 167.34375 2.046875 167.066406 1.828125 L 166 0.980469 C 165.238281 0.378906 164.132812 0.511719 163.527344 1.277344 L 160.054688 5.660156 L 158.796875 4.667969 C 158.03125 4.070312 156.925781 4.203125 156.320312 4.96875 L 155.472656 6.039062 C 154.867188 6.804688 154.992188 7.910156 155.75 8.515625 L 157.007812 9.507812 L 153.535156 13.894531 C 152.929688 14.660156 153.054688 15.765625 153.816406 16.367188 L 154.875 17.210938 C 155.152344 17.429688 155.480469 17.554688 155.8125 17.578125 L 155.605469 17.835938 C 155 18.601562 155.125 19.710938 155.882812 20.3125 L 156.945312 21.152344 C 157.707031 21.753906 158.8125 21.621094 159.417969 20.855469 L 164.019531 15.050781 L 173.542969 22.589844 L 168.945312 28.398438 C 168.339844 29.164062 168.464844 30.273438 169.222656 30.875 L 170.285156 31.714844 C 171.046875 32.316406 172.152344 32.183594 172.757812 31.417969 L 172.964844 31.160156 C 173.066406 31.480469 173.261719 31.765625 173.535156 31.984375 L 174.597656 32.824219 C 175.359375 33.425781 176.464844 33.292969 177.070312 32.527344 L 180.542969 28.144531 L 181.800781 29.140625 C 182.558594 29.742188 183.667969 29.609375 184.273438 28.84375 L 185.121094 27.773438 C 185.730469 27.011719 185.609375 25.90625 184.847656 25.304688 Z M 157.503906 8.882812 L 156.246094 7.886719 C 155.832031 7.558594 155.765625 6.949219 156.09375 6.53125 L 156.941406 5.460938 C 157.273438 5.042969 157.882812 4.972656 158.296875 5.300781 L 159.554688 6.292969 Z M 156.726562 16.421875 C 156.398438 16.839844 155.789062 16.910156 155.371094 16.582031 L 154.3125 15.742188 C 153.894531 15.414062 153.828125 14.804688 154.160156 14.386719 L 164.148438 1.769531 C 164.476562 1.351562 165.089844 1.277344 165.503906 1.609375 L 166.5625 2.449219 C 166.980469 2.777344 167.046875 3.386719 166.71875 3.804688 Z M 158.804688 20.371094 C 158.472656 20.789062 157.863281 20.859375 157.449219 20.53125 L 156.386719 19.691406 C 155.972656 19.363281 155.902344 18.753906 156.234375 18.335938 L 168.46875 2.886719 C 168.796875 2.46875 169.40625 2.394531 169.824219 2.722656 L 170.882812 3.5625 C 171.300781 3.890625 171.367188 4.5 171.039062 4.917969 Z M 174.039062 21.976562 L 164.515625 14.433594 L 165.292969 13.453125 L 168.441406 15.945312 C 168.609375 16.082031 168.859375 16.050781 168.992188 15.878906 C 169.128906 15.707031 169.101562 15.460938 168.929688 15.324219 L 165.78125 12.832031 L 166.558594 11.851562 L 176.085938 19.394531 Z M 172.140625 30.929688 C 171.8125 31.347656 171.203125 31.421875 170.789062 31.09375 L 169.726562 30.253906 C 169.3125 29.925781 169.242188 29.3125 169.574219 28.898438 L 181.804688 13.445312 C 182.136719 13.027344 182.746094 12.957031 183.160156 13.285156 L 184.222656 14.125 C 184.636719 14.453125 184.707031 15.0625 184.375 15.480469 Z M 176.460938 32.046875 C 176.132812 32.464844 175.523438 32.535156 175.105469 32.207031 L 174.046875 31.367188 C 173.632812 31.039062 173.5625 30.429688 173.894531 30.011719 L 183.882812 17.394531 C 184.210938 16.976562 184.824219 16.90625 185.238281 17.234375 L 186.300781 18.074219 C 186.714844 18.402344 186.78125 19.011719 186.453125 19.429688 Z M 183.65625 28.355469 C 183.328125 28.773438 182.71875 28.847656 182.300781 28.519531 L 181.046875 27.523438 L 183.101562 24.929688 L 184.355469 25.921875 C 184.769531 26.253906 184.839844 26.863281 184.507812 27.28125 Z M 169.628906 16.886719 L 170.695312 17.730469 C 170.863281 17.867188 171.113281 17.835938 171.25 17.664062 C 171.382812 17.496094 171.355469 17.246094 171.1875 17.113281 L 170.117188 16.265625 C 169.949219 16.132812 169.699219 16.160156 169.566406 16.332031 C 169.429688 16.503906 169.457031 16.75 169.628906 16.886719 Z M 169.628906 16.886719"/></g></g></g></svg>